<?xml version="1.0" encoding="utf-8"?>
<!-- Generator: Adobe Illustrator 16.0.2, SVG Export Plug-In . SVG Version: 6.00 Build 0)  -->
<!DOCTYPE svg PUBLIC "-//W3C//DTD SVG 1.1//EN" "http://www.w3.org/Graphics/SVG/1.1/DTD/svg11.dtd">
<svg version="1.1" id="Layer_2" xmlns="http://www.w3.org/2000/svg" xmlns:xlink="http://www.w3.org/1999/xlink" x="0px" y="0px"
	 width="164.858px" height="156.285px" viewBox="24.712 474.287 164.858 156.285"
	 enable-background="new 24.712 474.287 164.858 156.285" xml:space="preserve">
<ellipse fill="#1CD7AD" stroke="#FFFFFF" stroke-width="12" stroke-miterlimit="10" cx="107.142" cy="552.429" rx="76.429" ry="72.143"/>
<title>tv</title>
<path fill="#FFFFFF" d="M572.037,153.687h-38.178l13.553-20.534c1.176-1.781,0.564-4.105-1.356-5.191
	c-1.931-1.081-4.447-0.518-5.623,1.261l-16.146,24.465h-10.072l-16.148-24.465c-1.174-1.782-3.689-2.346-5.619-1.261
	c-1.93,1.089-2.539,3.41-1.363,5.191l13.558,20.534H466.46c-4.939,0-8.961,3.712-8.961,8.273v68.268
	c0,4.562,4.019,8.273,8.961,8.273h105.584c4.939,0,8.955-3.708,8.955-8.273V161.96c0-4.561-4.016-8.273-8.955-8.273H572.037z
	 M544.11,220.304c0,2.484-2.187,4.495-4.87,4.495h-62.332c-2.689,0-4.871-2.011-4.871-4.495v-48.422
	c0-2.484,2.182-4.499,4.871-4.499h62.332c2.684,0,4.87,2.014,4.87,4.499V220.304z M562.132,218.867
	c-4.658,0-8.457-3.496-8.457-7.803c0-4.3,3.791-7.8,8.457-7.8c4.658,0,8.451,3.5,8.451,7.8
	C570.583,215.371,566.791,218.867,562.132,218.867z M562.132,188.916c-4.658,0-8.457-3.5-8.457-7.8c0-4.308,3.791-7.803,8.457-7.803
	c4.658,0,8.451,3.496,8.451,7.803C570.583,185.416,566.791,188.916,562.132,188.916z"/>
<path fill="#FFFFFF" d="M512.156,377.07l-17.541-52.696v-15.835h5.059v-11.093h-28.68v11.093h5.063v15.825l-17.546,52.707
	c-0.645,2.24-1.012,4.8-1.012,7.529c0,8.75,3.777,15.846,8.436,15.846h38.802c4.658,0,8.436-7.096,8.436-15.846
	c0-2.729-0.368-5.29-1.013-7.529H512.156z M471.94,357.644l10.019-30.094v-19.012h6.746v19.012l10.021,30.094H471.94z"/>
<path fill="#FFFFFF" d="M137.96,581.279h-16.134c4.108-1.643,7.252-3.974,9.646-6.797c9.782-1.483,14.162-9.563,14.162-17.002
	c0-5.282-2.942-9.691-6.751-10.462v-0.119c0-0.663-0.262-1.323-0.792-1.854c-0.529-0.529-1.194-0.791-1.855-0.791H75.364
	c-0.662,0-1.324,0.262-1.852,0.791c-0.528,0.531-0.794,1.191-0.794,1.852c0.104,14.221,2.582,28.602,17.061,34.383H73.513
	c-1.852,0-3.442,1.451-3.442,3.438c0,1.586,1.058,2.775,2.912,3.173l16.807,1.189c0.397,0,0.793,0.267,0.925,0.665
	c0.662,1.32,1.987,2.115,3.439,2.115h21.971c1.452,0,2.778-0.795,3.307-2.115c0.131-0.398,0.529-0.665,0.923-0.665l18.129-1.189
	c1.855-0.397,2.914-1.587,2.914-3.173c0-1.854-1.457-3.441-3.438-3.441V581.279z M138.883,549.808
	c2.253,0.794,3.973,3.966,3.973,7.672c0,5.149-2.379,11.361-8.985,13.613c0.113-0.188,0.22-0.38,0.324-0.572
	c3.677-6.371,4.436-14.038,4.689-20.715V549.808z M75.364,546.899h60.872c-0.131,17.851-3.968,34.38-30.437,34.38
	s-30.304-16.529-30.438-34.38H75.364z M138.223,585.25l-17.732,1.188c-1.326,0.131-2.516,0.927-3.176,2.116
	c-0.263,0.398-0.661,0.66-1.059,0.66H94.157c-0.396,0-0.794-0.262-1.058-0.66c-0.662-1.189-1.852-1.985-3.177-2.116L73.38,585.25
	c-0.662-0.136-0.662-0.398-0.662-0.533c0-0.398,0.396-0.792,0.794-0.792h64.579c0.398,0,0.792,0.397,0.792,0.792
	C138.883,584.851,138.883,585.114,138.223,585.25z M104.875,526.137c-1.985,1.982-3.042,3.966-3.042,6.083
	c0,2.116,1.058,4.229,3.042,6.348c0.265,0.263,0.531,0.395,0.926,0.395c0.396,0,0.662-0.132,0.925-0.395
	c0.531-0.531,0.531-1.324,0-1.854c-1.456-1.587-2.25-3.041-2.25-4.496c0-1.456,0.794-2.911,2.25-4.233
	c1.987-1.851,3.044-3.968,3.044-6.083c0-2.117-0.926-4.364-3.044-6.347c-0.529-0.53-1.323-0.53-1.854,0
	c-0.529,0.528-0.529,1.322,0,1.851c1.457,1.586,2.25,3.041,2.25,4.496c0,1.454-0.793,2.909-2.25,4.23L104.875,526.137z
	 M116.387,532.22c0,2.116,1.059,4.229,3.045,6.348c0.263,0.263,0.529,0.395,0.928,0.395c0.263,0,0.661-0.132,0.792-0.395
	c0.529-0.531,0.529-1.324,0-1.854c-1.457-1.587-2.249-3.041-2.249-4.496c0-1.456,0.792-2.911,2.249-4.233
	c2.117-1.851,3.176-3.968,3.176-6.083c0-2.248-0.928-4.364-3.045-6.347c-0.529-0.53-1.322-0.53-1.851,0
	c-0.534,0.528-0.534,1.322,0,1.851c1.452,1.586,2.249,3.041,2.249,4.496c0,1.454-0.797,2.777-2.249,4.232
	c-1.986,1.983-3.045,3.967-3.045,6.084V532.22z M88.6,532.22c0,2.116,1.058,4.229,3.043,6.348c0.264,0.263,0.53,0.395,0.926,0.395
	c0.263,0,0.662-0.132,0.794-0.395c0.531-0.531,0.531-1.324,0-1.854c-1.456-1.587-2.25-3.041-2.25-4.496
	c0-1.456,0.794-2.911,2.25-4.233c2.117-1.851,3.176-3.968,3.176-6.083c0-2.248-0.926-4.364-3.044-6.347
	c-0.53-0.53-1.324-0.53-1.852,0c-0.528,0.528-0.53,1.322,0,1.851c1.457,1.586,2.251,3.041,2.251,4.496
	c0,1.454-0.794,2.777-2.251,4.232c-1.985,1.983-3.043,3.967-3.043,6.084V532.22z"/>
</svg>
