<?xml version="1.0" encoding="utf-8"?>
<!-- Generator: Adobe Illustrator 16.0.2, SVG Export Plug-In . SVG Version: 6.00 Build 0)  -->
<!DOCTYPE svg PUBLIC "-//W3C//DTD SVG 1.1//EN" "http://www.w3.org/Graphics/SVG/1.1/DTD/svg11.dtd">
<svg version="1.1" id="Layer_2" xmlns="http://www.w3.org/2000/svg" xmlns:xlink="http://www.w3.org/1999/xlink" x="0px" y="0px"
	 width="164.858px" height="156.285px" viewBox="591.57 443.66 164.858 156.285"
	 enable-background="new 591.57 443.66 164.858 156.285" xml:space="preserve">
<ellipse fill="#4E73DB" stroke="#FFFFFF" stroke-width="12" stroke-miterlimit="10" cx="674" cy="521.802" rx="76.429" ry="72.143"/>
<title>tv</title>
<path fill="#FFFFFF" d="M552.037,143.687h-38.178l13.553-20.534c1.176-1.781,0.563-4.105-1.356-5.191
	c-1.931-1.081-4.445-0.518-5.623,1.261l-16.146,24.465h-10.072l-16.146-24.465c-1.176-1.782-3.689-2.346-5.619-1.261
	c-1.932,1.089-2.539,3.41-1.363,5.191l13.558,20.534H446.46c-4.938,0-8.961,3.712-8.961,8.273v68.268
	c0,4.562,4.019,8.273,8.961,8.273h105.584c4.939,0,8.955-3.708,8.955-8.273V151.96c0-4.561-4.016-8.273-8.955-8.273H552.037z
	 M524.11,210.304c0,2.484-2.188,4.495-4.87,4.495h-62.332c-2.689,0-4.871-2.011-4.871-4.495v-48.422
	c0-2.484,2.182-4.499,4.871-4.499h62.332c2.684,0,4.87,2.014,4.87,4.499V210.304z M542.132,208.867
	c-4.658,0-8.457-3.496-8.457-7.803c0-4.3,3.791-7.8,8.457-7.8c4.658,0,8.451,3.5,8.451,7.8
	C550.583,205.371,546.791,208.867,542.132,208.867z M542.132,178.916c-4.658,0-8.457-3.5-8.457-7.8c0-4.308,3.791-7.803,8.457-7.803
	c4.658,0,8.451,3.496,8.451,7.803C550.583,175.416,546.791,178.916,542.132,178.916z"/>
<path fill="#FFFFFF" d="M726.819,339.427l-17.541-52.696v-15.835h5.06v-11.093h-28.68v11.093h5.063v15.825l-17.545,52.708
	c-0.645,2.239-1.013,4.799-1.013,7.528c0,8.75,3.777,15.847,8.437,15.847H719.4c4.658,0,8.436-7.097,8.436-15.847
	c0-2.729-0.367-5.29-1.013-7.528h-0.004V339.427z M686.604,320.001l10.019-30.094v-19.012h6.746v19.012l10.021,30.094H686.604z"/>
<g id="XMLID_496_">
	<path id="XMLID_497_" fill="#FFFFFF" stroke="#FFFFFF" stroke-width="12" stroke-miterlimit="10" d="M625.014,520.183l20.025,7.805
		l7.75,26.031c0.496,1.668,2.448,2.283,3.744,1.178l11.162-9.504c1.17-0.994,2.837-1.045,4.061-0.117l20.132,15.264
		c1.386,1.053,3.349,0.26,3.698-1.49l14.748-74.088c0.379-1.91-1.418-3.504-3.161-2.801l-82.183,33.111
		C622.963,516.388,622.98,519.386,625.014,520.183z M651.541,523.833l39.135-25.174c0.703-0.451,1.428,0.543,0.824,1.127
		l-32.299,31.355c-1.136,1.104-1.868,2.58-2.075,4.182l-1.101,8.516c-0.146,1.139-1.675,1.25-1.975,0.15l-4.232-15.527
		C649.334,526.691,650.041,524.798,651.541,523.833z"/>
</g>
</svg>
