<svg xmlns="http://www.w3.org/2000/svg" width="164.858" height="156.285" viewBox="24.712 474.287 164.858 156.285"><ellipse fill="#1CD7AD" stroke="#FFF" stroke-width="12" stroke-miterlimit="10" cx="107.142" cy="552.429" rx="76.429" ry="72.143"/><title>tv</title><path fill="#FFF" d="M572.037 153.687h-38.178l13.553-20.534c1.176-1.781.564-4.105-1.356-5.191-1.931-1.081-4.447-.518-5.623 1.261l-16.146 24.465h-10.072l-16.148-24.465c-1.174-1.782-3.689-2.346-5.619-1.261-1.93 1.089-2.539 3.41-1.363 5.191l13.558 20.534H466.46c-4.939 0-8.961 3.712-8.961 8.273v68.268c0 4.562 4.019 8.273 8.961 8.273h105.584c4.939 0 8.955-3.708 8.955-8.273V161.96c0-4.561-4.016-8.273-8.955-8.273h-.007zm-27.927 66.617c0 2.484-2.187 4.495-4.87 4.495h-62.332c-2.689 0-4.871-2.011-4.871-4.495v-48.422c0-2.484 2.182-4.499 4.871-4.499h62.332c2.684 0 4.87 2.014 4.87 4.499v48.422zm18.022-1.437c-4.658 0-8.457-3.496-8.457-7.803 0-4.3 3.791-7.8 8.457-7.8 4.658 0 8.451 3.5 8.451 7.8 0 4.307-3.792 7.803-8.451 7.803zm0-29.951c-4.658 0-8.457-3.5-8.457-7.8 0-4.308 3.791-7.803 8.457-7.803 4.658 0 8.451 3.496 8.451 7.803 0 4.3-3.792 7.8-8.451 7.8zM512.156 377.07l-17.541-52.696v-15.835h5.059v-11.093h-28.68v11.093h5.063v15.825l-17.546 52.707c-.645 2.24-1.012 4.8-1.012 7.529 0 8.75 3.777 15.846 8.436 15.846h38.802c4.658 0 8.436-7.096 8.436-15.846 0-2.729-.368-5.29-1.013-7.529h-.004zm-40.216-19.426l10.019-30.094v-19.012h6.746v19.012l10.021 30.094H471.94zM137.96 581.279h-16.134c4.108-1.643 7.252-3.974 9.646-6.797 9.782-1.483 14.162-9.563 14.162-17.002 0-5.282-2.942-9.691-6.751-10.462v-.119c0-.663-.262-1.323-.792-1.854a2.616 2.616 0 0 0-1.855-.791H75.364c-.662 0-1.324.262-1.852.791-.528.531-.794 1.191-.794 1.852.104 14.221 2.582 28.602 17.061 34.383H73.513c-1.852 0-3.442 1.451-3.442 3.438 0 1.586 1.058 2.775 2.912 3.173l16.807 1.189c.397 0 .793.267.925.665a3.82 3.82 0 0 0 3.439 2.115h21.971c1.452 0 2.778-.795 3.307-2.115a.994.994 0 0 1 .923-.665l18.129-1.189c1.855-.397 2.914-1.587 2.914-3.173 0-1.854-1.457-3.441-3.438-3.441v.002zm.923-31.471c2.253.794 3.973 3.966 3.973 7.672 0 5.149-2.379 11.361-8.985 13.613.113-.188.22-.38.324-.572 3.677-6.371 4.436-14.038 4.689-20.715v.002zm-63.519-2.909h60.872c-.131 17.851-3.968 34.38-30.437 34.38s-30.304-16.529-30.438-34.38h.003zm62.859 38.351l-17.732 1.188c-1.326.131-2.516.927-3.176 2.116-.263.398-.661.66-1.059.66H94.157c-.396 0-.794-.262-1.058-.66-.662-1.189-1.852-1.985-3.177-2.116L73.38 585.25c-.662-.136-.662-.398-.662-.533 0-.398.396-.792.794-.792h64.579c.398 0 .792.397.792.792 0 .134 0 .397-.66.533zm-33.348-59.113c-1.985 1.982-3.042 3.966-3.042 6.083 0 2.116 1.058 4.229 3.042 6.348.265.263.531.395.926.395.396 0 .662-.132.925-.395.531-.531.531-1.324 0-1.854-1.456-1.587-2.25-3.041-2.25-4.496 0-1.456.794-2.911 2.25-4.233 1.987-1.851 3.044-3.968 3.044-6.083 0-2.117-.926-4.364-3.044-6.347-.529-.53-1.323-.53-1.854 0a1.278 1.278 0 0 0 0 1.851c1.457 1.586 2.25 3.041 2.25 4.496 0 1.454-.793 2.909-2.25 4.23l.003.005zm11.512 6.083c0 2.116 1.059 4.229 3.045 6.348.263.263.529.395.928.395.263 0 .661-.132.792-.395a1.281 1.281 0 0 0 0-1.854c-1.457-1.587-2.249-3.041-2.249-4.496 0-1.456.792-2.911 2.249-4.233 2.117-1.851 3.176-3.968 3.176-6.083 0-2.248-.928-4.364-3.045-6.347a1.276 1.276 0 0 0-1.851 0c-.534.528-.534 1.322 0 1.851 1.452 1.586 2.249 3.041 2.249 4.496 0 1.454-.797 2.777-2.249 4.232-1.986 1.983-3.045 3.967-3.045 6.084v.002zm-27.787 0c0 2.116 1.058 4.229 3.043 6.348.264.263.53.395.926.395.263 0 .662-.132.794-.395.531-.531.531-1.324 0-1.854-1.456-1.587-2.25-3.041-2.25-4.496 0-1.456.794-2.911 2.25-4.233 2.117-1.851 3.176-3.968 3.176-6.083 0-2.248-.926-4.364-3.044-6.347-.53-.53-1.324-.53-1.852 0a1.278 1.278 0 0 0 0 1.851c1.457 1.586 2.251 3.041 2.251 4.496 0 1.454-.794 2.777-2.251 4.232-1.985 1.983-3.043 3.967-3.043 6.084v.002z"/></svg>