<svg xmlns="http://www.w3.org/2000/svg" width="169" height="156" viewBox="614.141 233.445 169 156"><ellipse fill="#FFA507" stroke="#FFF" stroke-width="12" stroke-miterlimit="10" cx="700" cy="311.304" rx="76.429" ry="72.143"/><title>tv</title><path fill="#FFF" d="M552.037 143.687h-38.178l13.553-20.534c1.176-1.781.563-4.105-1.356-5.191-1.931-1.081-4.445-.518-5.623 1.261l-16.146 24.465h-10.072l-16.146-24.465c-1.176-1.782-3.689-2.346-5.619-1.261-1.932 1.089-2.539 3.41-1.363 5.191l13.558 20.534H446.46c-4.938 0-8.961 3.712-8.961 8.273v68.268c0 4.562 4.019 8.273 8.961 8.273h105.584c4.939 0 8.955-3.708 8.955-8.273V151.96c0-4.561-4.016-8.273-8.955-8.273h-.007zm-27.927 66.617c0 2.484-2.188 4.495-4.87 4.495h-62.332c-2.689 0-4.871-2.011-4.871-4.495v-48.422c0-2.484 2.182-4.499 4.871-4.499h62.332c2.684 0 4.87 2.014 4.87 4.499v48.422zm18.022-1.437c-4.658 0-8.457-3.496-8.457-7.803 0-4.3 3.791-7.8 8.457-7.8 4.658 0 8.451 3.5 8.451 7.8 0 4.307-3.792 7.803-8.451 7.803zm0-29.951c-4.658 0-8.457-3.5-8.457-7.8 0-4.308 3.791-7.803 8.457-7.803 4.658 0 8.451 3.496 8.451 7.803 0 4.3-3.792 7.8-8.451 7.8zm184.687 160.511l-17.541-52.696v-15.835h5.06v-11.093h-28.68v11.093h5.063v15.825l-17.545 52.708c-.645 2.239-1.013 4.799-1.013 7.528 0 8.75 3.777 15.847 8.437 15.847h38.8c4.658 0 8.436-7.097 8.436-15.847 0-2.729-.367-5.29-1.013-7.528h-.004v-.002zm-40.215-19.426l10.019-30.094v-19.012h6.746v19.012l10.021 30.094h-26.786z"/></svg>