<svg xmlns="http://www.w3.org/2000/svg" width="170" height="160" viewBox="127.929 260.643 170 160"><ellipse fill="#1CD7AD" stroke="#FFF" stroke-width="12" stroke-miterlimit="10" cx="107.142" cy="552.429" rx="76.429" ry="72.143"/><title>tv</title><path fill="#FFF" d="M572.037 153.688H533.86l13.553-20.535c1.176-1.78.563-4.104-1.356-5.19-1.931-1.081-4.446-.519-5.623 1.261l-16.146 24.465h-10.072l-16.147-24.465c-1.175-1.781-3.689-2.346-5.619-1.261-1.931 1.089-2.539 3.41-1.363 5.19l13.558 20.535H466.46c-4.938 0-8.961 3.711-8.961 8.272v68.269c0 4.562 4.019 8.272 8.961 8.272h105.584c4.939 0 8.955-3.708 8.955-8.272V161.96c0-4.562-4.016-8.272-8.955-8.272h-.007zm-27.926 66.617c0 2.483-2.188 4.494-4.87 4.494h-62.332c-2.689 0-4.871-2.011-4.871-4.494v-48.423c0-2.483 2.182-4.499 4.871-4.499h62.332c2.684 0 4.87 2.014 4.87 4.499v48.423zm18.021-1.438c-4.658 0-8.457-3.496-8.457-7.803 0-4.301 3.791-7.801 8.457-7.801 4.658 0 8.451 3.5 8.451 7.801 0 4.307-3.792 7.803-8.451 7.803zm0-29.951c-4.658 0-8.457-3.5-8.457-7.8 0-4.308 3.791-7.804 8.457-7.804 4.658 0 8.451 3.496 8.451 7.804 0 4.3-3.792 7.8-8.451 7.8zM512.156 377.07l-17.541-52.696v-15.835h5.059v-11.093h-28.68v11.093h5.063v15.825l-17.546 52.707c-.645 2.239-1.012 4.8-1.012 7.528 0 8.75 3.777 15.847 8.436 15.847h38.803c4.657 0 8.436-7.097 8.436-15.847 0-2.729-.368-5.289-1.013-7.528l-.005-.001zm-40.215-19.425l10.019-30.095v-19.012h6.746v19.012l10.021 30.095h-26.786zM137.96 581.279h-16.134c4.107-1.644 7.252-3.975 9.646-6.797 9.782-1.483 14.162-9.563 14.162-17.003 0-5.281-2.942-9.69-6.751-10.462v-.118c0-.663-.262-1.323-.792-1.854a2.616 2.616 0 0 0-1.855-.791H75.364c-.661 0-1.323.262-1.852.791-.528.531-.794 1.191-.794 1.853.104 14.221 2.582 28.602 17.061 34.383H73.513c-1.852 0-3.442 1.451-3.442 3.438 0 1.586 1.059 2.775 2.912 3.173l16.808 1.189c.396 0 .793.267.925.665a3.82 3.82 0 0 0 3.438 2.115h21.972c1.452 0 2.777-.795 3.307-2.115a.994.994 0 0 1 .923-.665l18.129-1.189c1.855-.396 2.914-1.587 2.914-3.173 0-1.854-1.457-3.44-3.438-3.44zm.923-31.471c2.253.794 3.973 3.967 3.973 7.672 0 5.149-2.379 11.361-8.984 13.613.112-.188.22-.38.323-.572 3.678-6.37 4.437-14.037 4.689-20.715l-.001.002zm-63.519-2.909h60.872c-.131 17.851-3.968 34.38-30.437 34.38s-30.304-16.529-30.438-34.38h.003zm62.859 38.351l-17.731 1.188c-1.326.131-2.517.927-3.177 2.115-.263.398-.661.66-1.059.66H94.157c-.396 0-.795-.262-1.059-.66-.662-1.188-1.852-1.984-3.177-2.115L73.38 585.25c-.662-.136-.662-.398-.662-.533 0-.397.396-.792.794-.792h64.579c.397 0 .792.397.792.792 0 .134 0 .397-.66.533zm-33.348-59.113c-1.985 1.982-3.042 3.966-3.042 6.083 0 2.116 1.058 4.229 3.042 6.349.265.263.53.395.926.395s.662-.132.925-.395c.531-.531.531-1.324 0-1.854-1.456-1.587-2.25-3.041-2.25-4.496 0-1.456.794-2.911 2.25-4.232 1.987-1.852 3.044-3.969 3.044-6.083 0-2.117-.926-4.364-3.044-6.348-.529-.529-1.323-.529-1.854 0-.529.528-.529 1.322 0 1.852 1.457 1.586 2.25 3.041 2.25 4.496 0 1.454-.793 2.909-2.25 4.229l.003.004zm11.512 6.083c0 2.116 1.059 4.229 3.045 6.349.263.263.529.395.928.395.264 0 .661-.132.792-.395a1.281 1.281 0 0 0 0-1.854c-1.457-1.587-2.249-3.041-2.249-4.496 0-1.456.792-2.911 2.249-4.232 2.117-1.852 3.177-3.969 3.177-6.083 0-2.248-.929-4.364-3.045-6.348a1.279 1.279 0 0 0-1.852 0c-.534.528-.534 1.322 0 1.852 1.452 1.586 2.249 3.041 2.249 4.496 0 1.454-.797 2.776-2.249 4.231-1.986 1.983-3.045 3.967-3.045 6.084v.001zm-27.787 0c0 2.116 1.059 4.229 3.043 6.349.265.263.53.395.926.395.264 0 .662-.132.794-.395.531-.531.531-1.324 0-1.854-1.455-1.587-2.25-3.041-2.25-4.496 0-1.456.795-2.911 2.25-4.232 2.117-1.852 3.177-3.969 3.177-6.083 0-2.248-.927-4.364-3.044-6.348a1.28 1.28 0 0 0-1.853 0 1.28 1.28 0 0 0 0 1.852c1.457 1.586 2.251 3.041 2.251 4.496 0 1.454-.794 2.776-2.251 4.231-1.984 1.983-3.043 3.967-3.043 6.084v.001z"/><ellipse fill="#FF4E50" stroke="#FFF" stroke-width="12" stroke-miterlimit="10" cx="-18.289" cy="353.429" rx="76.429" ry="72.143"/><ellipse fill="#FF4E50" stroke="#FFF" stroke-width="12" stroke-miterlimit="10" cx="212.711" cy="342.429" rx="76.429" ry="72.143"/><title>tv</title><path fill="#FFF" d="M265.498 303.688H227.32l13.553-20.535c1.175-1.78.564-4.104-1.357-5.19-1.93-1.081-4.447-.519-5.623 1.261l-16.146 24.465h-10.071l-16.148-24.465c-1.174-1.781-3.689-2.346-5.619-1.261-1.93 1.089-2.54 3.41-1.363 5.19l13.557 20.535h-38.181c-4.938 0-8.96 3.711-8.96 8.272v68.269c0 4.562 4.018 8.272 8.96 8.272h105.584c4.939 0 8.955-3.708 8.955-8.272V311.96c0-4.562-4.016-8.272-8.955-8.272h-.008zm-27.927 66.617c0 2.483-2.187 4.494-4.869 4.494h-62.333c-2.689 0-4.87-2.011-4.87-4.494v-48.423c0-2.483 2.181-4.499 4.87-4.499h62.333c2.683 0 4.869 2.014 4.869 4.499v48.423zm18.022-1.438c-4.658 0-8.458-3.496-8.458-7.803 0-4.301 3.792-7.801 8.458-7.801 4.658 0 8.451 3.5 8.451 7.801 0 4.307-3.792 7.803-8.451 7.803zm0-29.951c-4.658 0-8.458-3.5-8.458-7.8 0-4.308 3.792-7.804 8.458-7.804 4.658 0 8.451 3.496 8.451 7.804 0 4.3-3.792 7.8-8.451 7.8z"/></svg>