<svg style="position: absolute; width: 0; height: 0; overflow: hidden;" version="1.1" xmlns="http://www.w3.org/2000/svg">
<defs>
<symbol id="icon-facebook" viewBox="0 0 32 32">
<title>facebook</title>
<path fill="#3b5998" style="fill: var(--color1, #3b5998)" d="M32 16c0 8.837-7.163 16-16 16s-16-7.163-16-16c0-8.837 7.163-16 16-16s16 7.163 16 16z"></path>
<path fill="#fff" style="fill: var(--color2, #fff)" d="M20.022 16.626h-2.855v10.459h-4.326v-10.459h-2.057v-3.676h2.057v-2.379c0-1.701 0.808-4.365 4.364-4.365l3.204 0.013v3.568h-2.325c-0.381 0-0.918 0.191-0.918 1.002v2.163h3.233l-0.378 3.672z"></path>
</symbol>
<symbol id="icon-linkedin" viewBox="0 0 32 32">
<title>linkedin</title>
<path fill="#0e76a8" style="fill: var(--color3, #0e76a8)" d="M16 0c8.837 0 16 7.164 16 16s-7.163 16-16 16-16-7.164-16-16 7.163-16 16-16z"></path>
<path fill="#fff" style="fill: var(--color2, #fff)" d="M9.016 21.984h2.996v-9.986h-2.996v9.986zM20.688 11.652c-1.454 0-2.755 0.531-3.678 1.703v-1.39h-3.007v10.019h3.007v-5.418c0-1.145 1.049-2.262 2.363-2.262s1.638 1.117 1.638 2.234v5.445h2.996v-5.668c-0-3.937-1.864-4.663-3.319-4.663zM10.5 11c0.828 0 1.5-0.672 1.5-1.5s-0.672-1.5-1.5-1.5-1.5 0.672-1.5 1.5 0.672 1.5 1.5 1.5z"></path>
</symbol>
<symbol id="icon-pinterest" viewBox="0 0 32 32">
<title>pinterest</title>
<path fill="#0ff" style="fill: var(--color4, #0ff)" d="M16 0c8.837 0 16 7.164 16 16 0 8.837-7.163 16-16 16s-16-7.163-16-16c0-8.836 7.163-16 16-16z"></path>
<path fill="#fff" style="fill: var(--color2, #fff)" d="M16.484 7.006c-5.638 0-8.479 3.914-8.479 7.177 0 1.976 0.772 3.734 2.43 4.389 0.271 0.107 0.516 0.004 0.594-0.287l0.242-0.923c0.080-0.287 0.049-0.389-0.17-0.64-0.479-0.545-0.783-1.252-0.783-2.253 0-2.903 2.243-5.502 5.841-5.502 3.187 0 4.937 1.885 4.937 4.402 0 3.312-1.514 6.108-3.762 6.108-1.24 0-2.17-0.993-1.872-2.214 0.356-1.454 1.048-3.025 1.048-4.076 0-0.939-0.521-1.725-1.601-1.725-1.269 0-2.288 1.271-2.288 2.974 0 1.085 0.379 1.818 0.379 1.818l-1.527 6.261c-0.453 1.857-0.067 4.135-0.035 4.365 0.020 0.136 0.2 0.168 0.282 0.066 0.117-0.148 1.628-1.955 2.142-3.761 0.146-0.511 0.835-3.158 0.835-3.158 0.412 0.763 1.617 1.433 2.898 1.433 3.813 0 6.401-3.367 6.401-7.873-0.001-3.407-2.981-6.581-7.512-6.581z"></path>
</symbol>
<symbol id="icon-twitter" viewBox="0 0 32 32">
<title>twitter</title>
<path fill="#55acee" style="fill: var(--color5, #55acee)" d="M32 16c0 8.836-7.163 16-16 16s-16-7.163-16-16c0-8.836 7.163-16 16-16s16 7.163 16 16z"></path>
<path fill="#f1f2f2" style="fill: var(--color6, #f1f2f2)" d="M25.801 11.499c-0.64 0.291-1.382 0.503-2.16 0.598 0.754-0.475 1.349-1.21 1.637-2.085-0.691 0.395-1.505 0.717-2.372 0.892-0.748-0.736-1.738-1.199-2.836-1.199-0.002 0-0.004 0-0.005 0-2.111 0-3.824 1.713-3.824 3.824 0 0.3 0.034 0.592 0.1 0.872-3.178-0.159-5.997-1.682-7.883-3.996-0.326 0.549-0.518 1.211-0.518 1.917 0 0.002 0 0.004 0 0.006 0 1.326 0.676 2.497 1.701 3.183-0.639-0.020-1.233-0.195-1.751-0.489l0.019 0.058c0 1.853 1.319 3.399 3.068 3.75-0.301 0.085-0.646 0.134-1.003 0.134-0.002 0-0.003 0-0.005 0-0.247 0-0.486-0.024-0.719-0.068 0.487 1.519 1.899 2.625 3.573 2.656-1.291 1.021-2.942 1.637-4.738 1.637-0.004 0-0.009 0-0.013 0-0.307 0-0.612-0.018-0.911-0.054 1.653 1.078 3.677 1.718 5.85 1.718 0.004 0 0.008 0 0.012 0 7.034 0 10.881-5.827 10.881-10.882 0-0.166-0.004-0.331-0.011-0.495 0.752-0.547 1.385-1.203 1.891-1.952z"></path>
</symbol>
<symbol id="icon-vimeo" viewBox="0 0 32 32">
<title>vimeo</title>
<path fill="#86c9ef" style="fill: var(--color7, #86c9ef)" d="M16 0c8.837 0 16 7.164 16 16 0 8.837-7.163 16-16 16s-16-7.163-16-16c0-8.836 7.163-16 16-16z"></path>
<path fill="#fff" style="fill: var(--color2, #fff)" d="M7 13c1.496-1.194 3.623-3.816 5.282-3.816 1.657 0 2.064 1.957 2.29 3.732 0.229 1.775 0.88 5.658 1.756 5.658 0.878 0 2.877-3.435 2.763-4.762-0.112-1.327-1.56-1.128-2.356-0.747 0.732-2.654 2.422-4.065 4.583-4.065s2.683 1.527 2.683 3.402c0 2.854-5.785 11.598-9.28 11.598-2.162 0-2.698-3.186-3.136-4.763-0.439-1.575-1.301-5.708-2.309-5.973-0.391-0.065-1.495 0.812-1.495 0.812l-0.781-1.076z"></path>
</symbol>
</defs>
</svg>
