<svg xmlns="http://www.w3.org/2000/svg" viewBox="0 0 512 512" width="512" height="512"><path d="M496.7 300.979a245.252 245.252 0 0 0 3.917-43.597c0-134.118-109.107-243.234-243.226-243.234a244.93 244.93 0 0 0-43.58 3.917A143.92 143.92 0 0 0 144 0C64.606 0 0 64.597 0 144c0 24.439 6.238 48.503 18.074 69.803a244.921 244.921 0 0 0-3.917 43.58c0 134.118 109.107 243.226 243.234 243.226 14.583 0 29.235-1.314 43.588-3.908 18.901 10.291 41.771 15.3 69.786 15.3C449.963 512 512 449.963 512 370.756c0-28.015-5.009-50.884-15.3-69.777zM261.845 427.093c-105.344 0-136.713-47.898-146.039-76.45-7.279-22.298-2.44-36.634 2.901-44.749 8.363-12.706 21.845-17.118 28.493-17.724 12.297-1.101 34.91 2.568 41.762 23.484 2.441 7.424 16.623 44.672 56.892 48.7 35.644 3.592 59.102-12.262 65.852-28.467 2.142-5.137 1.741-10.539-1.143-15.616-4.292-7.552-17.835-21.111-60.348-27.187-84.668-12.092-133.222-50.833-133.222-106.283 0-70.221 78.899-95.138 146.458-95.138 71.74 0 108.544 41.583 116.668 57.6 7.262 14.31 7.834 33.263 1.417 47.164-4.736 10.274-12.715 17.024-23.066 19.524-31.599 7.612-46.618-14.857-61.636-42.743-5.683-10.556-17.536-14.669-26.479-16.265-22.852-4.079-49.775 3.43-60.595 12.996-3.968 3.516-8.405 8.815-6.972 14.08 1.246 4.574 10.291 20.446 74.325 32.896 86.852 16.887 125.585 49.391 125.585 105.404-.001 53.47-52.686 108.774-140.853 108.774z" fill="#c3cedb"/></svg>